<?xml version="1.0" standalone="no"?>
<!DOCTYPE svg PUBLIC "-//W3C//DTD SVG 20010904//EN"
 "http://www.w3.org/TR/2001/REC-SVG-20010904/DTD/svg10.dtd">
<svg version="1.0" xmlns="http://www.w3.org/2000/svg"
 width="512.000000pt" height="512.000000pt" viewBox="0 0 512.000000 512.000000"
 preserveAspectRatio="xMidYMid meet">
<metadata>
Created by potrace 1.11, written by Peter Selinger 2001-2013
</metadata>
<g transform="translate(0.000000,512.000000) scale(0.100000,-0.100000)"
fill="#000000" stroke="none">
<path d="M2378 5115 c-2 -1 -39 -5 -82 -9 -44 -4 -82 -9 -85 -11 -4 -2 -34 -7
-66 -10 -117 -14 -472 -111 -499 -136 -6 -5 -16 -9 -23 -9 -8 0 -49 -16 -91
-35 -352 -161 -618 -354 -877 -637 -33 -36 -71 -80 -85 -98 -14 -18 -29 -38
-35 -44 -82 -92 -246 -369 -323 -546 -61 -142 -131 -351 -146 -443 -3 -15 -7
-35 -10 -45 -3 -9 -7 -34 -11 -56 -3 -21 -7 -41 -9 -45 -4 -6 -12 -72 -26
-201 -8 -85 -5 -454 4 -515 4 -22 13 -80 21 -130 29 -174 78 -357 142 -520 37
-93 123 -273 161 -335 12 -19 29 -48 38 -65 20 -36 138 -208 156 -227 7 -7 25
-30 41 -50 15 -20 47 -59 72 -85 l44 -48 1 -167 0 -166 31 -31 31 -31 200 0
200 0 82 -49 c235 -142 529 -259 776 -310 122 -25 143 -29 210 -37 30 -3 76
-10 103 -14 48 -7 471 -5 517 4 14 2 45 7 70 10 25 4 92 16 150 27 58 12 115
23 128 25 38 7 320 103 370 125 269 121 517 279 704 449 42 39 81 70 87 70 16
0 82 61 76 70 -5 8 23 45 83 110 13 14 55 66 93 117 246 326 420 728 485 1123
38 235 40 574 5 805 -71 465 -273 906 -577 1266 l-84 99 0 170 0 170 -29 32
-29 33 -224 5 -223 5 -60 37 c-64 38 -298 158 -310 158 -4 0 -21 6 -38 14 -91
42 -367 123 -472 139 -16 3 -48 13 -70 23 -35 15 -77 18 -317 19 -152 2 -278
1 -280 0z"/>
</g>
</svg>
